<?xml version="1.0" encoding="UTF-8"?>
<svg version="1.1" xmlns="http://www.w3.org/2000/svg" width="474" height="474">
<path d="M0 0 C156.42 0 312.84 0 474 0 C474 156.42 474 312.84 474 474 C317.58 474 161.16 474 0 474 C0 317.58 0 161.16 0 0 Z " fill="#FEFEFE" transform="translate(0,0)"/>
<path d="M0 0 C34.98 0 69.96 0 106 0 C106 26.07 106 52.14 106 79 C132.07 79 158.14 79 185 79 C185 105.07 185 131.14 185 158 C211.07 158 237.14 158 264 158 C264 192.98 264 227.96 264 264 C229.02 264 194.04 264 158 264 C158 237.93 158 211.86 158 185 C132.37511163 185.03961535 132.37511163 185.03961535 106.75024414 185.09008789 C101.80358887 185.09460449 101.80358887 185.09460449 99.4907074 185.09544373 C97.86908189 185.09698323 96.24745755 185.10050828 94.62583923 185.10557556 C92.17509968 185.11285343 89.72443032 185.11390741 87.27368164 185.11352539 C86.54654748 185.1171235 85.81941332 185.12072161 85.07024479 185.12442875 C80.11402634 185.11402634 80.11402634 185.11402634 79 184 C78.90501354 181.56603981 78.87441583 179.16057048 78.88647461 176.72631836 C78.88632858 175.96539383 78.88618256 175.2044693 78.8860321 174.42048645 C78.88673138 171.89357702 78.89452445 169.36674038 78.90234375 166.83984375 C78.90420788 165.0924941 78.9056318 163.34514393 78.90663147 161.59779358 C78.91045707 156.98968066 78.92028771 152.38159905 78.93133545 147.77349854 C78.94334306 142.24940386 78.94795161 136.72529874 78.95378876 131.20119476 C78.96349945 122.8007747 78.9826557 114.40042341 79 106 C61.84 106 44.68 106 27 106 C27 132.07 27 158.14 27 185 C18.09 185 9.18 185 0 185 C0 123.95 0 62.9 0 0 Z " fill="#DDAB31" transform="translate(105,105)"/>
<path d="M0 0 C1.21925832 -0.00155594 1.21925832 -0.00155594 2.46314812 -0.00314331 C21.03662791 -0.02213147 39.61019095 0.03064168 58.18359375 0.0625 C58.18359375 35.0425 58.18359375 70.0225 58.18359375 106.0625 C23.20359375 106.0625 -11.77640625 106.0625 -47.81640625 106.0625 C-47.81640625 79.6625 -47.81640625 53.2625 -47.81640625 26.0625 C-55.73640625 26.0625 -63.65640625 26.0625 -71.81640625 26.0625 C-90.20730244 25.31403329 -90.20730244 25.31403329 -94.81640625 24.0625 C-94.67539768 21.79136197 -94.5284387 19.52059275 -94.37890625 17.25 C-94.29769531 15.98542969 -94.21648437 14.72085937 -94.1328125 13.41796875 C-93.81640625 10.0625 -93.81640625 10.0625 -92.81640625 7.0625 C-93.47640625 7.0625 -94.13640625 7.0625 -94.81640625 7.0625 C-94.81640625 5.7425 -94.81640625 4.4225 -94.81640625 3.0625 C-88.19140625 1.9375 -88.19140625 1.9375 -84.81640625 3.0625 C-84.81640625 3.7225 -84.81640625 4.3825 -84.81640625 5.0625 C-82.17640625 5.0625 -79.53640625 5.0625 -76.81640625 5.0625 C-76.81640625 4.0725 -76.81640625 3.0825 -76.81640625 2.0625 C-71.5830646 1.21372172 -66.48829441 0.85890845 -61.19140625 0.74609375 C-60.32748764 0.72526733 -59.46356903 0.70444092 -58.57347107 0.6829834 C-55.65454666 0.61594737 -52.73553853 0.55723674 -49.81640625 0.5 C-48.8010379 0.47882111 -47.78566956 0.45764221 -46.73953247 0.43582153 C-31.15973191 0.12035271 -15.58254089 0.01987022 0 0 Z " fill="#9B9995" transform="translate(310.81640625,262.9375)"/>
<path d="M0 0 C34.98 0 69.96 0 106 0 C106 26.07 106 52.14 106 79 C97.09 79 88.18 79 79 79 C79 61.84 79 44.68 79 27 C61.84 27 44.68 27 27 27 C27 44.16 27 61.32 27 79 C39.54 79 52.08 79 65 79 C65 79.66 65 80.32 65 81 C64.34 81 63.68 81 63 81 C63.33 81.99 63.66 82.98 64 84 C64.06933871 85.44640549 64.08456788 86.89585162 64.0625 88.34375 C64.05476563 89.17777344 64.04703125 90.01179688 64.0390625 90.87109375 C64.01302083 92.62369792 63.98697917 94.37630208 63.9609375 96.12890625 C63.95320313 96.96292969 63.94546875 97.79695313 63.9375 98.65625 C63.92589844 99.41744141 63.91429687 100.17863281 63.90234375 100.96289062 C63.91774851 103.20397655 63.91774851 103.20397655 65 106 C52.46 106 39.92 106 27 106 C27 132.07 27 158.14 27 185 C18.09 185 9.18 185 0 185 C0 123.95 0 62.9 0 0 Z " fill="#050339" transform="translate(105,105)"/>
<path d="M0 0 C0.05135694 7.76974615 0.08600441 15.53944742 0.10986328 23.30932617 C0.11868085 25.9441748 0.13340024 28.57879588 0.15087891 31.21362305 C0.24847082 46.32027789 -0.05432335 61.00909764 -2 76 C-8.6 76 -15.2 76 -22 76 C-21.67 75.34 -21.34 74.68 -21 74 C-21.28112064 71.99199544 -21.61067967 69.98985949 -22 68 C-22.66 68 -23.32 68 -24 68 C-24.05534912 66.73293213 -24.11069824 65.46586426 -24.16772461 64.16040039 C-24.3735604 59.47691118 -24.58560297 54.79372034 -24.79956055 50.1105957 C-24.8914357 48.08039875 -24.98160817 46.05012401 -25.07006836 44.01977539 C-25.19722252 41.10801609 -25.3304191 38.1965878 -25.46484375 35.28515625 C-25.50343002 34.3716188 -25.5420163 33.45808136 -25.58177185 32.51686096 C-25.37940755 28.42890586 -25.37940755 28.42890586 -27 25 C-29.45306793 24.88035402 -31.87927563 24.82457818 -34.33374023 24.81054688 C-35.10120575 24.80225357 -35.86867126 24.79396027 -36.65939331 24.78541565 C-38.3312667 24.76797696 -40.00316506 24.75282069 -41.67507744 24.73963928 C-44.31796144 24.71867569 -46.96072016 24.69164764 -49.60353088 24.66296387 C-55.21480619 24.60316184 -60.82613926 24.55106238 -66.4375 24.5 C-72.93399298 24.44084273 -79.43042441 24.37857913 -85.9268055 24.30812073 C-88.53593617 24.28148134 -91.14507278 24.26070446 -93.7542572 24.2401123 C-95.34846289 24.22351251 -96.94266578 24.20664095 -98.53686523 24.18945312 C-99.63178535 24.1831765 -99.63178535 24.1831765 -100.74882507 24.17677307 C-105.77231844 24.11384078 -105.77231844 24.11384078 -108 23 C-108.28391135 19.89795604 -108.52121382 16.79405744 -108.75 13.6875 C-108.83121094 12.80642578 -108.91242188 11.92535156 -108.99609375 11.01757812 C-109.05410156 10.17001953 -109.11210937 9.32246094 -109.171875 8.44921875 C-109.2347168 7.66893311 -109.29755859 6.88864746 -109.36230469 6.0847168 C-109 4 -109 4 -107.26496887 2.39672852 C-104.71445663 0.82391521 -103.36506272 0.6089796 -100.39819336 0.56762695 C-99.02121025 0.53794327 -99.02121025 0.53794327 -97.6164093 0.50765991 C-96.11825935 0.49806747 -96.11825935 0.49806747 -94.58984375 0.48828125 C-93.005951 0.46128647 -93.005951 0.46128647 -91.39006042 0.43374634 C-87.90591141 0.3786566 -84.42192559 0.34518742 -80.9375 0.3125 C-78.52651774 0.2796105 -76.11554751 0.2458273 -73.70458984 0.21118164 C-49.13794841 -0.1155251 -24.56815635 -0.10193605 0 0 Z " fill="#F9C016" transform="translate(289,185)"/>
<path d="M0 0 C17.16 0 34.32 0 52 0 C52 17.16 52 34.32 52 52 C34.84 52 17.68 52 0 52 C0 34.84 0 17.68 0 0 Z " fill="#FEFEFE" transform="translate(290,290)"/>
<path d="M0 0 C17.16 0 34.32 0 52 0 C52 17.16 52 34.32 52 52 C34.84 52 17.68 52 0 52 C0 34.84 0 17.68 0 0 Z " fill="#FDFEFD" transform="translate(211,211)"/>
<path d="M0 0 C17.16 0 34.32 0 52 0 C52 17.16 52 34.32 52 52 C34.84 52 17.68 52 0 52 C0 34.84 0 17.68 0 0 Z " fill="#FEFEFE" transform="translate(132,132)"/>
<path d="M0 0 C1.051875 -0.00386719 1.051875 -0.00386719 2.125 -0.0078125 C4 0.125 4 0.125 6 1.125 C7.77995526 1.15053476 9.56098757 1.11442836 11.33984375 1.046875 C12.9340918 1.00820313 12.9340918 1.00820313 14.56054688 0.96875 C16.80843414 0.9063448 19.05594186 0.82826302 21.30273438 0.734375 C22.36685547 0.71375 23.43097656 0.693125 24.52734375 0.671875 C25.99288696 0.62305176 25.99288696 0.62305176 27.48803711 0.57324219 C30 1.125 30 1.125 31.90454102 3.52832031 C32.26604248 4.38522461 32.62754395 5.24212891 33 6.125 C32.67 6.785 32.34 7.445 32 8.125 C32.99 8.455 33.98 8.785 35 9.125 C35 8.135 35 7.145 35 6.125 C36.32 6.125 37.64 6.125 39 6.125 C39 7.445 39 8.765 39 10.125 C40.32 10.125 41.64 10.125 43 10.125 C42.67 11.445 42.34 12.765 42 14.125 C41.01 14.125 40.02 14.125 39 14.125 C39 15.445 39 16.765 39 18.125 C37.68 18.125 36.36 18.125 35 18.125 C35 16.805 35 15.485 35 14.125 C34.34 14.125 33.68 14.125 33 14.125 C32.566875 15.0221875 32.566875 15.0221875 32.125 15.9375 C30.21615935 19.6491346 28.80521864 21.47607192 25 23.125 C29.02040985 23.82084017 32.08263419 24.2950097 36 23.125 C36.06058594 23.97964844 36.12117188 24.83429688 36.18359375 25.71484375 C36.26738281 26.81957031 36.35117188 27.92429687 36.4375 29.0625 C36.51871094 30.16464844 36.59992188 31.26679688 36.68359375 32.40234375 C36.70418084 35.03609903 36.70418084 35.03609903 38 36.125 C40.5 36.29166667 40.5 36.29166667 43 36.125 C44.81115956 34.31384044 44.38199448 31.51221773 44.5625 29.0625 C44.64628906 27.95777344 44.73007813 26.85304688 44.81640625 25.71484375 C44.90728516 24.43287109 44.90728516 24.43287109 45 23.125 C45.99 23.125 46.98 23.125 48 23.125 C48 27.745 48 32.365 48 37.125 C48.66 37.125 49.32 37.125 50 37.125 C50.2475 36.3 50.495 35.475 50.75 34.625 C52.18704811 30.60126529 54.02354515 26.90520976 56 23.125 C56.99 23.125 57.98 23.125 59 23.125 C60.17818551 25.68274456 61.34265655 28.24534242 62.5 30.8125 C62.83386719 31.53373047 63.16773438 32.25496094 63.51171875 32.99804688 C65.23077159 36.83960372 66.47556626 39.81942688 66 44.125 C67.216875 44.269375 68.43375 44.41375 69.6875 44.5625 C78.56934584 45.69434584 78.56934584 45.69434584 81 48.125 C81.33 47.135 81.66 46.145 82 45.125 C82.66 45.125 83.32 45.125 84 45.125 C84 47.765 84 50.405 84 53.125 C83.34 53.125 82.68 53.125 82 53.125 C82 52.465 82 51.805 82 51.125 C81.01 51.125 80.02 51.125 79 51.125 C79 51.785 79 52.445 79 53.125 C78.38125 52.939375 77.7625 52.75375 77.125 52.5625 C74.95839822 51.88813824 74.95839822 51.88813824 73 53.125 C70.3276379 53.25915472 67.67749512 53.16818541 65 53.125 C64.87625 52.320625 64.7525 51.51625 64.625 50.6875 C64.315625 49.4190625 64.315625 49.4190625 64 48.125 C63.34 47.795 62.68 47.465 62 47.125 C62 49.105 62 51.085 62 53.125 C61.34 53.125 60.68 53.125 60 53.125 C60 51.145 60 49.165 60 47.125 C59.34 47.125 58.68 47.125 58 47.125 C58 48.775 58 50.425 58 52.125 C55.125 52.75 55.125 52.75 52 53.125 C50 51.125 50 51.125 49.8046875 48.9609375 C49.82789063 48.14882813 49.85109375 47.33671875 49.875 46.5 C49.89304688 45.68273437 49.91109375 44.86546875 49.9296875 44.0234375 C49.95289063 43.39695312 49.97609375 42.77046875 50 42.125 C49.01 41.795 48.02 41.465 47 41.125 C47 42.445 47 43.765 47 45.125 C47.66 45.125 48.32 45.125 49 45.125 C49.04254356 47.12454746 49.04080783 49.12541636 49 51.125 C48 52.125 48 52.125 45.5 52.25 C43 52.125 43 52.125 42 51.125 C41.95919217 49.12541636 41.95745644 47.12454746 42 45.125 C42.66 45.125 43.32 45.125 44 45.125 C44 47.105 44 49.085 44 51.125 C44.99 51.125 45.98 51.125 47 51.125 C46.84402344 50.57070313 46.68804687 50.01640625 46.52734375 49.4453125 C46.33269531 48.72085938 46.13804687 47.99640625 45.9375 47.25 C45.64166016 46.17105469 45.64166016 46.17105469 45.33984375 45.0703125 C45 43.125 45 43.125 46 41.125 C44.948125 41.186875 43.89625 41.24875 42.8125 41.3125 C38.83891936 41.117078 37.08755437 40.5576186 34 38.125 C34 37.465 34 36.805 34 36.125 C29.41416441 39.58276908 26.03352754 42.18221663 25 48.125 C25.27640014 50.4125976 25.27640014 50.4125976 26 52.125 C23.23735711 52.72232819 20.83967231 53.125 18 53.125 C15.8125 51.625 15.8125 51.625 14 50.125 C13.67 50.785 13.34 51.445 13 52.125 C11.68 52.125 10.36 52.125 9 52.125 C8.13375 52.310625 7.2675 52.49625 6.375 52.6875 C4 53.125 4 53.125 2 52.125 C-0.00800456 52.40612064 -2.01014051 52.73567967 -4 53.125 C-7.05065234 46.90166922 -7.05065234 46.90166922 -6.8125 43.25 C-6 41.125 -6 41.125 -4 40.125 C-4.165 39.63 -4.33 39.135 -4.5 38.625 C-5.41192659 34.06536703 -5.48043888 29.56631663 -4 25.125 C-4.99 24.465 -5.98 23.805 -7 23.125 C-6.34 22.465 -5.68 21.805 -5 21.125 C-5.33 20.795 -5.66 20.465 -6 20.125 C-6.08651611 18.70929877 -6.10704904 17.289405 -6.09765625 15.87109375 C-6.09443359 15.01708984 -6.09121094 14.16308594 -6.08789062 13.28320312 C-6.07951172 12.38537109 -6.07113281 11.48753906 -6.0625 10.5625 C-6.05798828 9.66080078 -6.05347656 8.75910156 -6.04882812 7.83007812 C-6.03700225 5.59498686 -6.0205222 3.36002563 -6 1.125 C-3.75487738 0.00243869 -2.48543351 -0.00913762 0 0 Z " fill="#FEFACB" transform="translate(111,315.875)"/>
<path d="M0 0 C4.43701657 4.43701657 3.31533209 12.89434703 3.5625 18.875 C3.60568359 19.84953125 3.64886719 20.8240625 3.69335938 21.828125 C3.79882274 24.21862802 3.90094175 26.60922444 4 29 C4.62648437 29.04898437 5.25296875 29.09796875 5.8984375 29.1484375 C6.71570313 29.22320312 7.53296875 29.29796875 8.375 29.375 C9.18710938 29.44460938 9.99921875 29.51421875 10.8359375 29.5859375 C13 30 13 30 15 32 C12 33 12 33 9 32 C9 33.32 9 34.64 9 36 C9.66 36 10.32 36 11 36 C10.85899143 38.27113803 10.71203245 40.54190725 10.5625 42.8125 C10.48128906 44.07707031 10.40007812 45.34164062 10.31640625 46.64453125 C10 50 10 50 9 53 C10.485 53.495 10.485 53.495 12 54 C7.46102295 54.02465392 2.92208457 54.04283789 -1.61694336 54.05493164 C-3.16219766 54.0599714 -4.70744716 54.0668032 -6.25268555 54.07543945 C-8.46925029 54.08752076 -10.68575218 54.09323173 -12.90234375 54.09765625 C-13.94454323 54.10539818 -13.94454323 54.10539818 -15.00779724 54.11329651 C-16.6722933 54.11349277 -18.33665499 54.06189129 -20 54 C-21 53 -21 53 -21.12025452 51.01951599 C-21.11803391 50.15125687 -21.11581329 49.28299774 -21.11352539 48.38842773 C-21.11344986 47.40748642 -21.11337433 46.4265451 -21.11329651 45.4158783 C-21.10813522 44.3492244 -21.10297394 43.2825705 -21.09765625 42.18359375 C-21.0962413 41.0974025 -21.09482635 40.01121124 -21.09336853 38.8921051 C-21.08775048 35.40720925 -21.07519492 31.92237658 -21.0625 28.4375 C-21.05748733 26.08138113 -21.05292402 23.72526126 -21.04882812 21.36914062 C-21.03777519 15.57940536 -21.02101951 9.78970719 -21 4 C-18.02720642 4.38967133 -18.02720642 4.38967133 -15.05441284 4.77934265 C-12.37265071 5.06738141 -9.81267451 5.01426593 -7.125 4.8125 C-5.73667969 4.72935547 -5.73667969 4.72935547 -4.3203125 4.64453125 C-1.82558964 4.22867104 -1.82558964 4.22867104 -0.6796875 1.94921875 C-0.45539063 1.30597656 -0.23109375 0.66273438 0 0 Z " fill="#FCC10E" transform="translate(207,234)"/>
<path d="M0 0 C0.99 0.33 1.98 0.66 3 1 C5.14255793 0.61067144 5.14255793 0.61067144 7 0 C7.06058594 0.85464844 7.12117188 1.70929688 7.18359375 2.58984375 C7.30927734 4.24693359 7.30927734 4.24693359 7.4375 5.9375 C7.51871094 7.03964844 7.59992188 8.14179688 7.68359375 9.27734375 C7.70418084 11.91109903 7.70418084 11.91109903 9 13 C11.5 13.16666667 11.5 13.16666667 14 13 C15.81115956 11.18884044 15.38199448 8.38721773 15.5625 5.9375 C15.64628906 4.83277344 15.73007813 3.72804688 15.81640625 2.58984375 C15.90728516 1.30787109 15.90728516 1.30787109 16 0 C16.99 0 17.98 0 19 0 C19 4.62 19 9.24 19 14 C19.66 14 20.32 14 21 14 C21.2475 13.175 21.495 12.35 21.75 11.5 C23.18704811 7.47626529 25.02354515 3.78020976 27 0 C27.99 0 28.98 0 30 0 C31.17818551 2.55774456 32.34265655 5.12034242 33.5 7.6875 C33.83386719 8.40873047 34.16773438 9.12996094 34.51171875 9.87304688 C36.23077159 13.71460372 37.47556626 16.69442688 37 21 C38.216875 21.144375 39.43375 21.28875 40.6875 21.4375 C49.56934584 22.56934584 49.56934584 22.56934584 52 25 C52.495 23.515 52.495 23.515 53 22 C53.66 22 54.32 22 55 22 C55 24.64 55 27.28 55 30 C54.34 30 53.68 30 53 30 C53 29.34 53 28.68 53 28 C52.01 28 51.02 28 50 28 C50 28.66 50 29.32 50 30 C49.38125 29.814375 48.7625 29.62875 48.125 29.4375 C45.95839822 28.76313824 45.95839822 28.76313824 44 30 C41.3276379 30.13415472 38.67749512 30.04318541 36 30 C35.87625 29.195625 35.7525 28.39125 35.625 27.5625 C35.41875 26.716875 35.2125 25.87125 35 25 C34.34 24.67 33.68 24.34 33 24 C33 25.98 33 27.96 33 30 C32.34 30 31.68 30 31 30 C31 28.02 31 26.04 31 24 C30.34 24 29.68 24 29 24 C29 25.65 29 27.3 29 29 C26.125 29.625 26.125 29.625 23 30 C21 28 21 28 20.8046875 25.8359375 C20.82789063 25.02382813 20.85109375 24.21171875 20.875 23.375 C20.89304688 22.55773437 20.91109375 21.74046875 20.9296875 20.8984375 C20.95289063 20.27195312 20.97609375 19.64546875 21 19 C20.01 18.67 19.02 18.34 18 18 C18 19.32 18 20.64 18 22 C18.66 22 19.32 22 20 22 C20.04254356 23.99954746 20.04080783 26.00041636 20 28 C19 29 19 29 16.5 29.125 C14 29 14 29 13 28 C12.95919217 26.00041636 12.95745644 23.99954746 13 22 C13.66 22 14.32 22 15 22 C15 23.98 15 25.96 15 28 C15.99 28 16.98 28 18 28 C17.84402344 27.44570313 17.68804687 26.89140625 17.52734375 26.3203125 C17.23537109 25.23363281 17.23537109 25.23363281 16.9375 24.125 C16.74027344 23.40570313 16.54304688 22.68640625 16.33984375 21.9453125 C16 20 16 20 17 18 C15.948125 18.061875 14.89625 18.12375 13.8125 18.1875 C9.83891936 17.992078 8.08755437 17.4326186 5 15 C5 14.34 5 13.68 5 13 C0.41416441 16.45776908 -2.96647246 19.05721663 -4 25 C-3.72359986 27.2875976 -3.72359986 27.2875976 -3 29 C-5.76264289 29.59732819 -8.16032769 30 -11 30 C-13.1875 28.5 -13.1875 28.5 -15 27 C-15.33 27.66 -15.66 28.32 -16 29 C-16.66 29 -17.32 29 -18 29 C-18 26.69 -18 24.38 -18 22 C-16 22 -16 22 -13.875 24 C-13.25625 24.66 -12.6375 25.32 -12 26 C-12 24.68 -12 23.36 -12 22 C-12.66 21.67 -13.32 21.34 -14 21 C-13.01 20.01 -12.02 19.02 -11 18 C-11.66 17.34 -12.32 16.68 -13 16 C-15.23387392 12.64918912 -15.67955618 10.87289891 -15.43359375 6.9375 C-13.64895873 -1.03708532 -6.62539121 -0.78606336 0 0 Z " fill="#DCDDDF" transform="translate(140,339)"/>
<path d="M0 0 C0 2.64 0 5.28 0 8 C4.29 8 8.58 8 13 8 C13 8.33 13 8.66 13 9 C11.02 9 9.04 9 7 9 C7 9.66 7 10.32 7 11 C6.34 11.53625 5.68 12.0725 5 12.625 C2.81874044 15.21524573 2.68431428 15.82987149 2.625 19.0625 C2.691304 23.04971457 2.691304 23.04971457 5 26 C5.99 26.66 6.98 27.32 8 28 C6.68 28.99 5.36 29.98 4 31 C4.33 32.65 4.66 34.3 5 36 C3.68 35.34 2.36 34.68 1 34 C1 33.34 1 32.68 1 32 C0.34 32 -0.32 32 -1 32 C-1.12375 32.94875 -1.2475 33.8975 -1.375 34.875 C-2 38 -2 38 -4 40 C-6.00240549 39.68143549 -8.00211562 39.34578768 -10 39 C-13.26410357 39.37617294 -13.26410357 39.37617294 -16 40 C-19.05065234 33.77666922 -19.05065234 33.77666922 -18.8125 30.125 C-18 28 -18 28 -16 27 C-16.2475 26.2575 -16.2475 26.2575 -16.5 25.5 C-17.41192659 20.94036703 -17.48043888 16.44131663 -16 12 C-16.99 11.34 -17.98 10.68 -19 10 C-18.34 9.01 -17.68 8.02 -17 7 C-16.01 7 -15.02 7 -14 7 C-13.67 5.35 -13.34 3.7 -13 2 C-11.02099824 1.66568899 -9.04179393 1.33257681 -7.0625 1 C-5.40927734 0.7215625 -5.40927734 0.7215625 -3.72265625 0.4375 C-1 0 -1 0 0 0 Z " fill="#F9F9EE" transform="translate(123,329)"/>
<path d="M0 0 C12.54 0 25.08 0 38 0 C38 0.66 38 1.32 38 2 C37.34 2 36.68 2 36 2 C36.495 3.485 36.495 3.485 37 5 C37.06933871 6.44640549 37.08456788 7.89585162 37.0625 9.34375 C37.05476563 10.17777344 37.04703125 11.01179687 37.0390625 11.87109375 C37.01302083 13.62369792 36.98697917 15.37630208 36.9609375 17.12890625 C36.95320313 17.96292969 36.94546875 18.79695313 36.9375 19.65625 C36.92589844 20.41744141 36.91429687 21.17863281 36.90234375 21.96289062 C36.91774851 24.20397655 36.91774851 24.20397655 38 27 C25.46 27 12.92 27 0 27 C0 26.67 0 26.34 0 26 C6.435 25.505 6.435 25.505 13 25 C13.33 18.07 13.66 11.14 14 4 C15.32 3.67 16.64 3.34 18 3 C18 2.34 18 1.68 18 1 C12.06 1 6.12 1 0 1 C0 0.67 0 0.34 0 0 Z " fill="#3C2B46" transform="translate(132,184)"/>
<path d="M0 0 C34.98 0 69.96 0 106 0 C106 26.07 106 52.14 106 79 C97.09 79 88.18 79 79 79 C79 61.84 79 44.68 79 27 C79.33 27 79.66 27 80 27 C80.33 43.17 80.66 59.34 81 76 C81.66 75.67 82.32 75.34 83 75 C84.4246028 74.90495475 85.85348167 74.8692714 87.28125 74.8671875 C88.12300781 74.86589844 88.96476562 74.86460937 89.83203125 74.86328125 C91.15267578 74.86908203 91.15267578 74.86908203 92.5 74.875 C93.38042969 74.87113281 94.26085937 74.86726563 95.16796875 74.86328125 C96.43060547 74.86521484 96.43060547 74.86521484 97.71875 74.8671875 C98.49154297 74.86831543 99.26433594 74.86944336 100.06054688 74.87060547 C102 75 102 75 104 76 C104.33 51.25 104.66 26.5 105 1 C70.68 1 36.36 1 1 1 C1 61.39 1 121.78 1 184 C9.25 184 17.5 184 26 184 C26 158.26 26 132.52 26 106 C26.33 106 26.66 106 27 106 C27 132.07 27 158.14 27 185 C18.09 185 9.18 185 0 185 C0 123.95 0 62.9 0 0 Z " fill="#57586C" transform="translate(105,105)"/>
<path d="M0 0 C34.32 0 68.64 0 104 0 C104 25.41 104 50.82 104 77 C103.67 77 103.34 77 103 77 C103 51.92 103 26.84 103 1 C85.45303828 1.11969369 85.45303828 1.11969369 67.90625 1.2578125 C60.75360897 1.31820927 53.60099575 1.37641078 46.44824219 1.421875 C40.68399316 1.45864779 34.91989432 1.5049856 29.15577316 1.55806351 C26.9524943 1.57665015 24.74918319 1.59174217 22.54585648 1.60334396 C19.46872704 1.62013354 16.39194483 1.64915052 13.31494141 1.68115234 C12.39640884 1.68331253 11.47787628 1.68547272 10.5315094 1.68769836 C9.69575882 1.69886185 8.86000824 1.71002533 7.99893188 1.7215271 C6.9066072 1.72982324 6.9066072 1.72982324 5.79221535 1.73828697 C3.74699734 1.85466098 3.74699734 1.85466098 2 4 C1.68337866 7.17933673 1.68337866 7.17933673 1.7215271 10.99807739 C1.7157347 11.72665856 1.7099423 12.45523973 1.70397437 13.20589912 C1.68690054 15.65960844 1.68409158 18.11313051 1.68115234 20.56689453 C1.67185924 22.32086655 1.66169151 24.07483412 1.65071106 25.82879639 C1.62332722 30.60124356 1.60823691 35.37366109 1.59528303 40.14616632 C1.57968904 45.12969536 1.55288702 50.1131635 1.5272522 55.09664917 C1.48039812 64.53845662 1.44368616 73.98027544 1.41057932 83.42214 C1.37240468 94.16929878 1.32298239 104.91639651 1.27259517 115.66350389 C1.16917675 137.77562422 1.07994868 159.88778318 1 182 C3.54250021 181.88525534 6.08347338 181.7585303 8.625 181.625 C9.69427734 181.57859375 9.69427734 181.57859375 10.78515625 181.53125 C15.17152608 181.28979845 18.8594834 180.60657269 23 179 C22.99777939 178.32285446 22.99555878 177.64570892 22.99327087 176.94804382 C22.97103376 169.85819022 22.95601697 162.76834663 22.94506836 155.6784668 C22.94006013 153.03751218 22.93325164 150.3965603 22.92456055 147.75561523 C22.91234058 143.94514282 22.90673643 140.13470728 22.90234375 136.32421875 C22.89718246 135.15606125 22.89202118 133.98790375 22.88670349 132.78434753 C22.88623257 125.79936979 23.22854088 118.94302276 24 112 C24.33 112 24.66 112 25 112 C25 135.43 25 158.86 25 183 C16.75 183 8.5 183 0 183 C0 122.61 0 62.22 0 0 Z " fill="#010122" transform="translate(106,106)"/>
<path d="M0 0 C26.07 0 52.14 0 79 0 C79 26.4 79 52.8 79 80 C54.75 80.4375 54.75 80.4375 47.10839844 80.56811523 C45.10871696 80.60624275 43.10904196 80.64471227 41.109375 80.68359375 C40.07184082 80.70006958 39.03430664 80.71654541 37.96533203 80.73352051 C36.97098145 80.75370239 35.97663086 80.77388428 34.95214844 80.79467773 C34.09055115 80.81022202 33.22895386 80.8257663 32.34124756 80.84178162 C30.01186728 80.92236486 30.01186728 80.92236486 27.87799072 81.57533264 C26 82 26 82 23 81 C23 81.99 23 82.98 23 84 C20.36 84 17.72 84 15 84 C15 83.34 15 82.68 15 82 C10.05 81.34 5.1 80.68 0 80 C0 79.67 0 79.34 0 79 C17.16 79 34.32 79 52 79 C52 61.84 52 44.68 52 27 C52.33 27 52.66 27 53 27 C54.19388403 56.13902594 54.19388403 56.13902594 54 69 C54.66 69 55.32 69 56 69 C56.66 71.31 57.32 73.62 58 76 C63.61 76 69.22 76 75 76 C77.13570625 60.11242908 77.43133524 44.39226903 77.625 28.375 C77.74875 19.34125 77.8725 10.3075 78 1 C52.26 1 26.52 1 0 1 C0 0.67 0 0.34 0 0 Z " fill="#F4D570" transform="translate(211,184)"/>
<path d="M0 0 C1.34034769 0.30390286 2.67713716 0.62727652 4 1 C5.07876712 11.2739726 5.07876712 11.2739726 2.4765625 15.4375 C0.5625 17.5 0.5625 17.5 -1.37109375 19.28125 C-3.20425721 21.21552319 -3.65968922 22.38386087 -4 25 C-3.62092718 27.18703385 -3.62092718 27.18703385 -3 29 C-5.76264289 29.59732819 -8.16032769 30 -11 30 C-13.1875 28.5 -13.1875 28.5 -15 27 C-15.33 27.66 -15.66 28.32 -16 29 C-16.66 29 -17.32 29 -18 29 C-18 26.69 -18 24.38 -18 22 C-16 22 -16 22 -13.875 24 C-13.25625 24.66 -12.6375 25.32 -12 26 C-12 24.68 -12 23.36 -12 22 C-12.66 21.67 -13.32 21.34 -14 21 C-13.01 20.01 -12.02 19.02 -11 18 C-11.66 17.34 -12.32 16.68 -13 16 C-15.23387392 12.64918912 -15.67955618 10.87289891 -15.43359375 6.9375 C-13.64273942 -1.06487611 -6.62895234 -0.7545149 0 0 Z " fill="#D0D1D1" transform="translate(140,339)"/>
<path d="M0 0 C8.25 0 16.5 0 25 0 C25 7.59 25 15.18 25 23 C23 21 23 21 22.875 17.875 C22.91625 16.92625 22.9575 15.9775 23 15 C20.04142591 14.94620774 17.08382279 14.90642907 14.125 14.875 C13.28324219 14.85824219 12.44148437 14.84148437 11.57421875 14.82421875 C10.36572266 14.81455078 10.36572266 14.81455078 9.1328125 14.8046875 C8.38918457 14.79421387 7.64555664 14.78374023 6.87939453 14.77294922 C4.75509765 14.8334403 4.75509765 14.8334403 3 17 C2.29289322 18.64991582 1.62056011 20.31562256 1 22 C0.67 22 0.34 22 0 22 C0 14.74 0 7.48 0 0 Z " fill="#B38744" transform="translate(185,211)"/>
<path d="M0 0 C22.69085954 -0.10796471 45.3309802 -0.13844683 68 1 C68 1.33 68 1.66 68 2 C66.99521858 2.01213028 66.99521858 2.01213028 65.97013855 2.02450562 C59.0110647 2.11042694 52.0522798 2.209925 45.09350586 2.31738281 C42.49492233 2.35571432 39.89628498 2.39055974 37.29760742 2.421875 C33.56669857 2.46743466 29.8361616 2.52544462 26.10546875 2.5859375 C24.93976852 2.59748871 23.7740683 2.60903992 22.57304382 2.62094116 C21.49214981 2.64081085 20.4112558 2.66068054 19.29760742 2.68115234 C18.34496506 2.69447601 17.39232269 2.70779968 16.41081238 2.7215271 C13.73958652 2.84459272 13.73958652 2.84459272 11 5 C10.50999569 6.99067448 10.50999569 6.99067448 10.5234375 9.28125 C10.47703125 10.54388672 10.47703125 10.54388672 10.4296875 11.83203125 C10.41164062 12.71246094 10.39359375 13.59289062 10.375 14.5 C10.32405719 16.23969702 10.26954091 17.97929418 10.2109375 19.71875 C10.19337402 20.49154297 10.17581055 21.26433594 10.15771484 22.06054688 C10 24 10 24 9 26 C7.5629191 26.05422947 6.12524538 26.09289723 4.6875 26.125 C3.48673828 26.15980469 3.48673828 26.15980469 2.26171875 26.1953125 C0 26 0 26 -3 24 C-2.34 24 -1.68 24 -1 24 C-1.33 16.74 -1.66 9.48 -2 2 C-1.34 2 -0.68 2 0 2 C0 1.34 0 0.68 0 0 Z " fill="#DBB02D" transform="translate(170,184)"/>
<path d="M0 0 C17.16 0 34.32 0 52 0 C52 16.83 52 33.66 52 51 C51.34 51 50.68 51 50 51 C49.03033906 40.17958969 48.87936805 29.47869898 48.9375 18.625 C48.9684375 10.395625 48.9684375 10.395625 49 2 C33.49 2 17.98 2 2 2 C2.33 17.18 2.66 32.36 3 48 C19.335 49.485 19.335 49.485 36 51 C36 51.33 36 51.66 36 52 C24.12 52 12.24 52 0 52 C0 34.84 0 17.68 0 0 Z " fill="#FEFADD" transform="translate(211,211)"/>
<path d="M0 0 C0.33 0 0.66 0 1 0 C1 5.28 1 10.56 1 16 C27.73 16.33 54.46 16.66 82 17 C82.495 17.99 82.495 17.99 83 19 C65.84 19 48.68 19 31 19 C31 36.16 31 53.32 31 71 C30.67 71 30.34 71 30 71 C30 53.84 30 36.68 30 19 C21.75 19 13.5 19 5 19 C5 44.74 5 70.48 5 97 C4.67 97 4.34 97 4 97 C4 71.26 4 45.52 4 19 C-0.62 19 -5.24 19 -10 19 C-10 18.67 -10 18.34 -10 18 C-7.03 18 -4.06 18 -1 18 C-0.505 9.09 -0.505 9.09 0 0 Z " fill="#E6C356" transform="translate(180,192)"/>
<path d="M0 0 C12.625 -0.25 12.625 -0.25 16 2 C16.36328125 4.4609375 16.36328125 4.4609375 16.3125 7.375 C16.30863281 8.33148438 16.30476563 9.28796875 16.30078125 10.2734375 C16 13 16 13 14 17 C9.38 17 4.76 17 0 17 C0 11.39 0 5.78 0 0 Z " fill="#E5C74A" transform="translate(124,319)"/>
<path d="M0 0 C12.54 0 25.08 0 38 0 C38 0.66 38 1.32 38 2 C37.34 2 36.68 2 36 2 C36.495 3.485 36.495 3.485 37 5 C37.06933871 6.44640549 37.08456788 7.89585162 37.0625 9.34375 C37.05476563 10.17777344 37.04703125 11.01179687 37.0390625 11.87109375 C37.01302083 13.62369792 36.98697917 15.37630208 36.9609375 17.12890625 C36.95320313 17.96292969 36.94546875 18.79695313 36.9375 19.65625 C36.92589844 20.41744141 36.91429687 21.17863281 36.90234375 21.96289062 C36.91774851 24.20397655 36.91774851 24.20397655 38 27 C25.46 27 12.92 27 0 27 C0 26.67 0 26.34 0 26 C9.24 25.67 18.48 25.34 28 25 C29.25767356 15.19016881 29.25767356 15.19016881 29 2 C19.43 1.67 9.86 1.34 0 1 C0 0.67 0 0.34 0 0 Z " fill="#816B5B" transform="translate(132,184)"/>
<path d="M0 0 C2.875 1.4375 2.875 1.4375 5 4 C5.79587939 8.0920214 5.78813749 11.54962558 3.77734375 15.25 C2 17 2 17 -0.33984375 17.53125 C-7.21505376 17.44854071 -7.21505376 17.44854071 -10.625 15.5 C-12.56663387 11.96975659 -12.82521082 8.93997716 -12 5 C-8.53870498 0.50031647 -5.60476862 -0.54948712 0 0 Z " fill="#232039" transform="translate(118,339)"/>
<path d="M0 0 C4.54544864 1.13636216 4.86710366 1.67661563 7.25 5.4375 C7.77078125 6.24058594 8.2915625 7.04367187 8.828125 7.87109375 C10 10 10 10 10 12 C10.66 12 11.32 12 12 12 C12.3403125 10.9790625 12.3403125 10.9790625 12.6875 9.9375 C14.30210338 6.32386386 16.22513188 2.85720842 19 0 C19.99 0 20.98 0 22 0 C22 5.94 22 11.88 22 18 C20.68 18 19.36 18 18 18 C17.67 15.36 17.34 12.72 17 10 C15.35 12.64 13.7 15.28 12 18 C7.60841671 16.5361389 7.12052567 14.02168662 5 10 C4.67 12.64 4.34 15.28 4 18 C2.68 18 1.36 18 0 18 C0 12.06 0 6.12 0 0 Z " fill="#25233E" transform="translate(179,339)"/>
<path d="M0 0 C0.66 0.99 1.32 1.98 2 3 C4.41607417 3.79798218 4.41607417 3.79798218 7.125 4.1875 C9.538125 4.5896875 9.538125 4.5896875 12 5 C12.33 8.3 12.66 11.6 13 15 C12.01 15 11.02 15 10 15 C10 13.02 10 11.04 10 9 C9.34 9 8.68 9 8 9 C8.33 11.31 8.66 13.62 9 16 C8.01 16.33 7.02 16.66 6 17 C5.01 16.34 4.02 15.68 3 15 C3 15.66 3 16.32 3 17 C2.01 17 1.02 17 0 17 C0 15.02 0 13.04 0 11 C-0.99 11 -1.98 11 -3 11 C-3 12.98 -3 14.96 -3 17 C-7.875 15.25 -7.875 15.25 -9 13 C-11.01669827 11.86649466 -11.01669827 11.86649466 -13 11 C-12.38125 10.938125 -11.7625 10.87625 -11.125 10.8125 C-10.073125 10.4103125 -10.073125 10.4103125 -9 10 C-8.30959426 8.34302621 -7.6469365 6.6744239 -7 5 C-2.55555556 0 -2.55555556 0 0 0 Z " fill="#F4F5F6" transform="translate(145,352)"/>
<path d="M0 0 C2.97 0 5.94 0 9 0 C9 0.66 9 1.32 9 2 C9.66 2.33 10.32 2.66 11 3 C10.01 3 9.02 3 8 3 C8 8.94 8 14.88 8 21 C9.32 21 10.64 21 12 21 C12 18.03 12 15.06 12 12 C15.37688548 15.37688548 17.86206208 17.93093122 18.1875 22.8125 C18.0946875 23.8953125 18.0946875 23.8953125 18 25 C17.34 25 16.68 25 16 25 C15.67 25.66 15.34 26.32 15 27 C14.67 26.67 14.34 26.34 14 26 C12.00041636 25.95919217 9.99954746 25.95745644 8 26 C8 25.34 8 24.68 8 24 C7.34 24 6.68 24 6 24 C6 23.01 6 22.02 6 21 C4.68 20.67 3.36 20.34 2 20 C2.99 19.67 3.98 19.34 5 19 C4.33291016 17.57107422 4.33291016 17.57107422 3.65234375 16.11328125 C3.08002422 14.84667246 2.50844859 13.57972736 1.9375 12.3125 C1.64294922 11.68666016 1.34839844 11.06082031 1.04492188 10.41601562 C-0.68010253 6.53978432 -1.36305016 4.07357275 0 0 Z " fill="#F2F3F5" transform="translate(171,336)"/>
<path d="M0 0 C0.33 0 0.66 0 1 0 C1.33 23.43 1.66 46.86 2 71 C18.335 71.495 18.335 71.495 35 72 C35 72.33 35 72.66 35 73 C30.21287067 73.09886835 25.42633525 73.17146623 20.63842773 73.21972656 C19.00974171 73.23984381 17.38112792 73.26714137 15.75268555 73.30175781 C13.41176542 73.35027429 11.07179982 73.37296632 8.73046875 73.390625 C8.00224411 73.41127014 7.27401947 73.43191528 6.52372742 73.45318604 C3.3784593 73.45458249 1.4908652 73.41289097 -0.96264648 71.34912109 C-2.26237782 68.40583682 -2.35647519 66.24313971 -2.328125 63.0234375 C-2.32369385 61.81083252 -2.3192627 60.59822754 -2.31469727 59.34887695 C-2.29334717 58.03749756 -2.27199707 56.72611816 -2.25 55.375 C-2.23733273 54.0080644 -2.22554812 52.64112037 -2.21459961 51.27416992 C-2.17119794 46.84882857 -2.08992021 42.42461337 -2 38 C-1.98455139 37.22436707 -1.96910278 36.44873413 -1.95318604 35.64959717 C-1.84208961 30.20335066 -1.70974003 24.75788314 -1.5625 19.3125 C-1.53343567 18.20016998 -1.53343567 18.20016998 -1.50378418 17.06536865 C-1.44665277 14.95614045 -1.3828251 12.84723525 -1.31640625 10.73828125 C-1.27974854 9.53212158 -1.24309082 8.32596191 -1.20532227 7.08325195 C-1.03708774 4.5569335 -0.73299534 2.40990385 0 0 Z " fill="#FEF9DB" transform="translate(183,218)"/>
<path d="M0 0 C1.85625 0.0309375 1.85625 0.0309375 3.75 0.0625 C1.77 1.0525 1.77 1.0525 -0.25 2.0625 C-0.23839844 2.908125 -0.22679687 3.75375 -0.21484375 4.625 C-0.13207178 15.03061962 -0.13207178 15.03061962 -0.8125 19.75 C-1.54784116 22.93388281 -1.54784116 22.93388281 -0.25 25.0625 C-2.89 24.7325 -5.53 24.4025 -8.25 24.0625 C-9.19738023 21.22035932 -9.38460559 19.38641609 -9.375 16.4375 C-9.37757813 15.64085937 -9.38015625 14.84421875 -9.3828125 14.0234375 C-9.25 12.0625 -9.25 12.0625 -8.25 11.0625 C-8.17794489 9.37641034 -8.16613932 7.68749341 -8.1875 6 C-8.19652344 5.08089844 -8.20554688 4.16179687 -8.21484375 3.21484375 C-8.22644531 2.50457031 -8.23804688 1.79429687 -8.25 1.0625 C-5.42068148 0.25321295 -2.93915923 -0.04898599 0 0 Z " fill="#5A424D" transform="translate(162.25,184.9375)"/>
<path d="M0 0 C0.99 0 1.98 0 3 0 C4.33819498 2.6226232 5.6707151 5.24786599 7 7.875 C7.3815625 8.62136719 7.763125 9.36773437 8.15625 10.13671875 C8.5171875 10.85214844 8.878125 11.56757813 9.25 12.3046875 C9.58515625 12.96452637 9.9203125 13.62436523 10.265625 14.30419922 C11 16 11 16 11 18 C10.360625 17.855625 9.72125 17.71125 9.0625 17.5625 C5.06155212 16.82763202 1.04495104 16.41418889 -3 16 C-3 16.66 -3 17.32 -3 18 C-4.32 18 -5.64 18 -7 18 C-6.35534798 13.66695924 -4.81074878 10.13327935 -2.9375 6.1875 C-2.11572266 4.44533203 -2.11572266 4.44533203 -1.27734375 2.66796875 C-0.85582031 1.78753906 -0.43429688 0.90710938 0 0 Z " fill="#191932" transform="translate(210,339)"/>
<path d="M0 0 C4.35143616 1.08785904 5.0207114 1.75586189 7.75 5.0625 C8.36359375 5.79597656 8.9771875 6.52945312 9.609375 7.28515625 C10.06828125 7.85105469 10.5271875 8.41695313 11 9 C11.33 6.03 11.66 3.06 12 0 C13.32 0 14.64 0 16 0 C16 5.61 16 11.22 16 17 C12 17 12 17 10.1484375 15.28515625 C9.56320313 14.55167969 8.97796875 13.81820313 8.375 13.0625 C6.06376026 10.06740295 6.06376026 10.06740295 3 8 C3 10.97 3 13.94 3 17 C2.01 17 1.02 17 0 17 C0 11.39 0 5.78 0 0 Z " fill="#1F1E3B" transform="translate(223,339)"/>
<path d="M0 0 C0.33 0 0.66 0 1 0 C1.495 3.465 1.495 3.465 2 7 C9.26 7 16.52 7 24 7 C24 5.35 24 3.7 24 2 C24.33 2 24.66 2 25 2 C25.495 5.465 25.495 5.465 26 9 C25.09251007 9.0154612 25.09251007 9.0154612 24.16668701 9.03123474 C17.87257242 9.13937584 11.57859877 9.25396779 5.28466797 9.37231445 C2.9354141 9.41563886 0.58612925 9.45731573 -1.76318359 9.49731445 C-5.1390924 9.55507715 -8.51484561 9.61875468 -11.890625 9.68359375 C-13.46738007 9.70866249 -13.46738007 9.70866249 -15.07598877 9.73423767 C-16.54706085 9.7641555 -16.54706085 9.7641555 -18.04785156 9.79467773 C-18.90944885 9.81022202 -19.77104614 9.8257663 -20.65875244 9.84178162 C-22.98813272 9.92236486 -22.98813272 9.92236486 -25.12200928 10.57533264 C-27 11 -27 11 -30 10 C-30 10.99 -30 11.98 -30 13 C-32.64 13 -35.28 13 -38 13 C-38 12.34 -38 11.68 -38 11 C-45.425 10.01 -45.425 10.01 -53 9 C-53 8.67 -53 8.34 -53 8 C-35.51 8 -18.02 8 0 8 C0 5.36 0 2.72 0 0 Z " fill="#D8CAA6" transform="translate(264,255)"/>
<path d="M0 0 C0.99 0.99 1.98 1.98 3 3 C2.67 3.66 2.34 4.32 2 5 C2.66 5 3.32 5 4 5 C4 4.34 4 3.68 4 3 C5.32 3 6.64 3 8 3 C8 3.99 8 4.98 8 6 C10.44496043 7.71711243 10.44496043 7.71711243 13 9 C12.67 10.65 12.34 12.3 12 14 C7.25 15.125 7.25 15.125 5 14 C2.99199544 14.28112064 0.98985949 14.61067967 -1 15 C-4.03660566 8.80532446 -4.03660566 8.80532446 -3.875 5.25 C-2.94109032 2.84851796 -1.97239152 1.6293669 0 0 Z " fill="#CFCFCF" transform="translate(108,354)"/>
<path d="M0 0 C0.99 0 1.98 0 3 0 C5.31 5.28 7.62 10.56 10 16 C6.16432171 16.95891957 3.17718859 17.10177189 -0.75 17.0625 C-1.92046875 17.05347656 -3.0909375 17.04445313 -4.296875 17.03515625 C-5.18890625 17.02355469 -6.0809375 17.01195312 -7 17 C-6.37954537 12.76677156 -4.89476441 9.47709705 -2.9375 5.6875 C-2.38964844 4.61886719 -1.84179688 3.55023438 -1.27734375 2.44921875 C-0.64505859 1.23685547 -0.64505859 1.23685547 0 0 Z " fill="#161432" transform="translate(167,339)"/>
<path d="M0 0 C0.33 0 0.66 0 1 0 C2.19388403 29.13902594 2.19388403 29.13902594 2 42 C2.66 42 3.32 42 4 42 C4.66 44.31 5.32 46.62 6 49 C11.61 49 17.22 49 23 49 C23.99 40.09 23.99 40.09 25 31 C25.33 31 25.66 31 26 31 C26.02712351 33.39591038 26.0468982 35.79150957 26.0625 38.1875 C26.07087891 38.86103516 26.07925781 39.53457031 26.08789062 40.22851562 C26.10654779 44.05323378 25.75942257 47.20288716 25 51 C17.74 51 10.48 51 3 51 C2.67 50.34 2.34 49.68 2 49 C1.34 49.99 0.68 50.98 0 52 C0 34.84 0 17.68 0 0 Z " fill="#E1C369" transform="translate(263,211)"/>
<path d="M0 0 C2.875 1.3125 2.875 1.3125 5 3 C5 3.99 5 4.98 5 6 C4.30132812 5.9278125 3.60265625 5.855625 2.8828125 5.78125 C1.97273437 5.6884375 1.06265625 5.595625 0.125 5.5 C-0.77992188 5.4071875 -1.68484375 5.314375 -2.6171875 5.21875 C-4.93313211 4.96952705 -4.93313211 4.96952705 -7 5 C-7 7.64 -7 10.28 -7 13 C-4.03 13 -1.06 13 2 13 C2 12.34 2 11.68 2 11 C2.99 11.33 3.98 11.66 5 12 C3.125 15.875 3.125 15.875 2 17 C-0.1796875 17.23828125 -0.1796875 17.23828125 -2.875 17.3125 C-3.75929687 17.34988281 -4.64359375 17.38726562 -5.5546875 17.42578125 C-8 17 -8 17 -9.7890625 15.2265625 C-11.61566852 11.86796433 -11.77080156 8.67221499 -11 5 C-7.82657109 0.51986507 -5.46202272 -0.91033712 0 0 Z " fill="#0C0C22" transform="translate(136,339)"/>
<path d="M0 0 C0.33 0 0.66 0 1 0 C1.33 16.17 1.66 32.34 2 49 C2.99 48.505 2.99 48.505 4 48 C7.13969311 47.7369974 10.28799981 47.7685401 13.4375 47.75 C14.30955078 47.729375 15.18160156 47.70875 16.08007812 47.6875 C16.91861328 47.68234375 17.75714844 47.6771875 18.62109375 47.671875 C19.77242798 47.65785645 19.77242798 47.65785645 20.94702148 47.64355469 C23.51330768 48.08912227 24.40145311 48.98996175 26 51 C26 51.33 26 51.66 26 52 C17.42 52 8.84 52 0 52 C0 34.84 0 17.68 0 0 Z " fill="#4A3D4B" transform="translate(184,132)"/>
<path d="M0 0 C-0.99 0.33 -1.98 0.66 -3 1 C-3 8.92 -3 16.84 -3 25 C-5.31 24.67 -7.62 24.34 -10 24 C-9.34 23.67 -8.68 23.34 -8 23 C-8.33 15.74 -8.66 8.48 -9 1 C-6.04335481 -0.4783226 -3.25770263 -0.06032783 0 0 Z " fill="#AF8845" transform="translate(177,185)"/>
<path d="M0 0 C0.66 0.33 1.32 0.66 2 1 C1.93489583 2.98567708 1.86979167 4.97135417 1.8046875 6.95703125 C1.86745538 9.31359719 1.86745538 9.31359719 4 12 C4.99 12.66 5.98 13.32 7 14 C5.68 14.99 4.36 15.98 3 17 C3.33 18.65 3.66 20.3 4 22 C2.68 21.34 1.36 20.68 0 20 C0 19.34 0 18.68 0 18 C-0.66 18 -1.32 18 -2 18 C-2.33 19.32 -2.66 20.64 -3 22 C-3.66 21.01 -4.32 20.02 -5 19 C-7.05003955 17.80767387 -7.05003955 17.80767387 -9 17 C-8.67 16.01 -8.34 15.02 -8 14 C-9.32 14 -10.64 14 -12 14 C-12 14.66 -12 15.32 -12 16 C-12.66 16 -13.32 16 -14 16 C-13.67 15.01 -13.34 14.02 -13 13 C-12.37351562 12.96261719 -11.74703125 12.92523438 -11.1015625 12.88671875 C-10.28429687 12.82097656 -9.46703125 12.75523437 -8.625 12.6875 C-7.81289062 12.62949219 -7.00078125 12.57148438 -6.1640625 12.51171875 C-3.62078662 12.17009472 -3.62078662 12.17009472 -2 9 C-1.33386665 6.72461677 -1.33386665 6.72461677 -0.875 4.3125 C-0.70742187 3.50425781 -0.53984375 2.69601562 -0.3671875 1.86328125 C-0.24601562 1.24839844 -0.12484375 0.63351562 0 0 Z " fill="#EDEDF0" transform="translate(124,343)"/>
<path d="M0 0 C0.99 0 1.98 0 3 0 C3.06058594 0.85464844 3.12117187 1.70929688 3.18359375 2.58984375 C3.26738281 3.69457031 3.35117188 4.79929687 3.4375 5.9375 C3.51871094 7.03964844 3.59992188 8.14179688 3.68359375 9.27734375 C3.70418084 11.91109903 3.70418084 11.91109903 5 13 C7.5 13.16666667 7.5 13.16666667 10 13 C11.81115956 11.18884044 11.38199448 8.38721773 11.5625 5.9375 C11.64628906 4.83277344 11.73007813 3.72804688 11.81640625 2.58984375 C11.87699219 1.73519531 11.93757812 0.88054687 12 0 C12.99 0 13.98 0 15 0 C15.13526139 2.24834496 15.23210804 4.49902514 15.3125 6.75 C15.39951172 8.62945312 15.39951172 8.62945312 15.48828125 10.546875 C15 14 15 14 12.70703125 16.453125 C10 18 10 18 6.375 18 C2.5675651 16.87187114 1.86928913 16.39054245 0 13 C-0.29296875 9.765625 -0.29296875 9.765625 -0.1875 6.25 C-0.16042969 5.07953125 -0.13335937 3.9090625 -0.10546875 2.703125 C-0.07066406 1.81109375 -0.03585938 0.9190625 0 0 Z " fill="#0B0B25" transform="translate(144,339)"/>
<path d="M0 0 C0.33 0 0.66 0 1 0 C1 5.28 1 10.56 1 16 C2.65 16.33 4.3 16.66 6 17 C5.67 43.4 5.34 69.8 5 97 C4.67 97 4.34 97 4 97 C4 71.26 4 45.52 4 19 C-0.62 19 -5.24 19 -10 19 C-10 18.67 -10 18.34 -10 18 C-7.03 18 -4.06 18 -1 18 C-0.505 9.09 -0.505 9.09 0 0 Z " fill="#E7C767" transform="translate(180,192)"/>
<path d="M0 0 C2.97 0.495 2.97 0.495 6 1 C5.51391769 1.40277664 5.02783539 1.80555328 4.52702332 2.22053528 C2.6118984 4.45226101 2.60837686 5.56189214 2.56762695 8.47143555 C2.53793571 9.82249641 2.53793571 9.82249641 2.50764465 11.20085144 C2.50125473 12.16968765 2.49486481 13.13852386 2.48828125 14.13671875 C2.46135445 15.62858452 2.46135445 15.62858452 2.43388367 17.15058899 C2.37966984 20.3295161 2.34584917 23.50829213 2.3125 26.6875 C2.27933674 28.84181795 2.24484801 30.99611594 2.20898438 33.15039062 C2.12393728 38.43345827 2.05563442 43.71654521 2 49 C2.99 49.33 3.98 49.66 5 50 C3.35 49.67 1.7 49.34 0 49 C0 32.83 0 16.66 0 0 Z " fill="#EFC21B" transform="translate(186,238)"/>
<path d="M0 0 C12.54 0 25.08 0 38 0 C38 0.66 38 1.32 38 2 C37.34 2 36.68 2 36 2 C36.495 3.485 36.495 3.485 37 5 C37.0806622 6.48123547 37.10761193 7.96582204 37.09765625 9.44921875 C37.09443359 10.29677734 37.09121094 11.14433594 37.08789062 12.01757812 C37.07532227 13.33918945 37.07532227 13.33918945 37.0625 14.6875 C37.05798828 15.58017578 37.05347656 16.47285156 37.04882812 17.39257812 C37.03704983 19.59511987 37.02060164 21.79752599 37 24 C35.68 24.33 34.36 24.66 33 25 C33.33 17.74 33.66 10.48 34 3 C31.05587973 1.52793987 28.03714085 1.76192808 24.8046875 1.68359375 C24.09724396 1.66281265 23.38980042 1.64203156 22.66091919 1.62062073 C20.39904575 1.55518922 18.13705538 1.49627026 15.875 1.4375 C14.34243578 1.39430867 12.80988343 1.35069418 11.27734375 1.30664062 C7.51834927 1.19951445 3.75923708 1.0982291 0 1 C0 0.67 0 0.34 0 0 Z " fill="#8D765F" transform="translate(132,184)"/>
<path d="M0 0 C0 0.66 0 1.32 0 2 C1.65 1.67 3.3 1.34 5 1 C5 2.98 5 4.96 5 7 C3.35 6.67 1.7 6.34 0 6 C0 6.66 0 7.32 0 8 C-6.38707103 9.32561852 -6.38707103 9.32561852 -9 7.9375 C-10.49870491 5.03375925 -9.86683331 3.06725634 -9 0 C-5.93109813 -1.53445094 -3.29905734 -0.54984289 0 0 Z " fill="#EBECF1" transform="translate(138,344)"/>
<path d="M0 0 C2.97 0 5.94 0 9 0 C9 0.66 9 1.32 9 2 C7.02 2 5.04 2 3 2 C3 3.98 3 5.96 3 8 C6.465 7.505 6.465 7.505 10 7 C10.33 5.02 10.66 3.04 11 1 C11.99 1.33 12.98 1.66 14 2 C14.35555556 7.33333333 14.35555556 7.33333333 13 9.875 C9.74686316 11.70488947 6.68609891 11.18128355 3 11 C2.67 12.32 2.34 13.64 2 15 C1.34 15 0.68 15 0 15 C0 10.05 0 5.1 0 0 Z " fill="#E4C03D" transform="translate(107,320)"/>
<path d="M0 0 C4.43701657 4.43701657 3.31533209 12.89434703 3.5625 18.875 C3.60568359 19.84953125 3.64886719 20.8240625 3.69335938 21.828125 C3.79882274 24.21862802 3.90094175 26.60922444 4 29 C4.62648437 29.04898437 5.25296875 29.09796875 5.8984375 29.1484375 C6.71570313 29.22320312 7.53296875 29.29796875 8.375 29.375 C9.18710938 29.44460938 9.99921875 29.51421875 10.8359375 29.5859375 C13 30 13 30 15 32 C12 33 12 33 9 32 C9 33.32 9 34.64 9 36 C9.66 36 10.32 36 11 36 C10.67 40.62 10.34 45.24 10 50 C9.67 50 9.34 50 9 50 C8.91363281 48.80761719 8.82726562 47.61523438 8.73828125 46.38671875 C8.59757618 44.82020226 8.45558168 43.25380121 8.3125 41.6875 C8.25900391 40.90181641 8.20550781 40.11613281 8.15039062 39.30664062 C7.9338363 37.09402031 7.68786866 35.11543556 7 33 C4.60531475 31.01984815 4.60531475 31.01984815 2 30 C0.60439955 27.20879909 0.78191712 24.79794308 0.68359375 21.6796875 C0.64169922 20.42285156 0.59980469 19.16601562 0.55664062 17.87109375 C0.51732422 16.55238281 0.47800781 15.23367187 0.4375 13.875 C0.39430488 12.53514249 0.35069027 11.19529844 0.30664062 9.85546875 C0.20029019 6.57042185 0.09826192 3.28529719 0 0 Z " fill="#EEBE2D" transform="translate(207,234)"/>
<path d="M0 0 C3.48722633 -0.09963504 6.62286946 0.08726202 10 1 C10.66 1.66 11.32 2.32 12 3 C12.33 2.01 12.66 1.02 13 0 C13.66 0 14.32 0 15 0 C15 2.64 15 5.28 15 8 C14.34 8 13.68 8 13 8 C13 7.34 13 6.68 13 6 C12.01 6 11.02 6 10 6 C10 6.66 10 7.32 10 8 C9.443125 7.814375 8.88625 7.62875 8.3125 7.4375 C5.94391319 6.83463761 5.94391319 6.83463761 3.375 7.5625 C2.59125 7.706875 1.8075 7.85125 1 8 C0.34 7.34 -0.32 6.68 -1 6 C-0.625 2.875 -0.625 2.875 0 0 Z " fill="#C2C4C3" transform="translate(180,361)"/>
<path d="M0 0 C0.66 0.33 1.32 0.66 2 1 C2 8.92 2 16.84 2 25 C0.35 25 -1.3 25 -3 25 C-3 17.08 -3 9.16 -3 1 C-2.01 0.67 -1.02 0.34 0 0 Z " fill="#CD9E38" transform="translate(177,185)"/>
<path d="M0 0 C2.81556762 0.05477312 5.60051378 0.17348864 8.41015625 0.33984375 C9.67320839 0.40855431 9.67320839 0.40855431 10.96177673 0.47865295 C13.66231513 0.6266986 16.36238021 0.78202331 19.0625 0.9375 C20.88864539 1.03888964 22.71481704 1.13980738 24.54101562 1.24023438 C29.02766732 1.48800636 33.51390751 1.74230911 38 2 C38 2.33 38 2.66 38 3 C12.26 3 -13.48 3 -40 3 C-40 2.67 -40 2.34 -40 2 C-38.82381104 1.97494385 -37.64762207 1.9498877 -36.43579102 1.92407227 C-32.08785378 1.83017194 -27.74008284 1.72990952 -23.39233398 1.62768555 C-21.50760782 1.58427067 -19.62284064 1.54260057 -17.73803711 1.50268555 C-15.03486751 1.44514107 -12.33190564 1.38140196 -9.62890625 1.31640625 C-8.78099014 1.29969376 -7.93307404 1.28298126 -7.0594635 1.26576233 C-3.21707924 1.53590805 -3.21707924 1.53590805 0 0 Z " fill="#D8C684" transform="translate(225,287)"/>
<path d="M0 0 C8.25 0 16.5 0 25 0 C25 4.29 25 8.58 25 13 C24.67 13 24.34 13 24 13 C23.855625 11.906875 23.71125 10.81375 23.5625 9.6875 C23.11711896 6.06877013 23.11711896 6.06877013 22 3 C21.01 3.495 21.01 3.495 20 4 C14.27818607 4.31787855 8.61590124 4.21424892 3 3 C3 2.34 3 1.68 3 1 C2.01 0.67 1.02 0.34 0 0 Z " fill="#986D2C" transform="translate(185,211)"/>
<path d="M0 0 C0.99 0 1.98 0 3 0 C3 5.94 3 11.88 3 18 C1.68 18 0.36 18 -1 18 C-1.1953125 14.97265625 -1.1953125 14.97265625 -1.390625 11.9453125 C-1.83022612 9.79577869 -1.83022612 9.79577869 -4.046875 8.7421875 C-4.69140625 8.49726563 -5.3359375 8.25234375 -6 8 C-5.07456291 6.65826597 -4.13422595 5.32679841 -3.1875 4 C-2.66542969 3.2575 -2.14335937 2.515 -1.60546875 1.75 C-0.81076172 0.88375 -0.81076172 0.88375 0 0 Z " fill="#3B3A53" transform="translate(198,339)"/>
<path d="M0 0 C2.64 0 5.28 0 8 0 C6.02 0.99 6.02 0.99 4 2 C4.01160156 2.845625 4.02320313 3.69125 4.03515625 4.5625 C4.08489687 10.81560618 3.96940246 16.82005931 3 23 C2.01 23.33 1.02 23.66 0 24 C0 16.08 0 8.16 0 0 Z " fill="#6C534F" transform="translate(158,185)"/>
<path d="M0 0 C3 0.25 3 0.25 5 2.25 C4.625 5.875 4.625 5.875 4 9.25 C0.625 9.875 0.625 9.875 -3 10.25 C-5 8.25 -5 8.25 -5.25 5.25 C-4.90584825 1.120179 -4.129821 0.34415175 0 0 Z " fill="#F1EFF7" transform="translate(115,342.75)"/>
<path d="M0 0 C10.625 -0.25 10.625 -0.25 14 2 C13.34 2 12.68 2 12 2 C12.020625 2.969375 12.04125 3.93875 12.0625 4.9375 C12 8 12 8 11 9 C8.66702567 9.04092937 6.33294775 9.04241723 4 9 C4 7.02 4 5.04 4 3 C5.98 3 7.96 3 10 3 C10 2.34 10 1.68 10 1 C7.03 1 4.06 1 1 1 C1 5.95 1 10.9 1 16 C1.66 16 2.32 16 3 16 C3.33 15.34 3.66 14.68 4 14 C3.67 15.32 3.34 16.64 3 18 C2.01 17.67 1.02 17.34 0 17 C0 11.39 0 5.78 0 0 Z " fill="#E5CA63" transform="translate(106,319)"/>
<path d="M0 0 C0.66 1.32 1.32 2.64 2 4 C4.64787088 4.70373017 4.64787088 4.70373017 7.625 4.75 C9.12933594 4.83507812 9.12933594 4.83507812 10.6640625 4.921875 C11.43492187 4.94765625 12.20578125 4.9734375 13 5 C13 5.99 13 6.98 13 8 C9.37 8 5.74 8 2 8 C2.33 8.99 2.66 9.98 3 11 C6.3 11.33 9.6 11.66 13 12 C13 12.66 13 13.32 13 14 C8.71 14 4.42 14 0 14 C0 9.38 0 4.76 0 0 Z " fill="#E8C22E" transform="translate(125,321)"/>
<path d="M0 0 C0.99 0.66 1.98 1.32 3 2 C3.3984375 4.0234375 3.3984375 4.0234375 3.375 6.375 C3.38273437 7.14585937 3.39046875 7.91671875 3.3984375 8.7109375 C2.89408102 11.60851495 2.1113283 12.95306951 0 15 C-2.41015625 15.49609375 -2.41015625 15.49609375 -5.0625 15.4375 C-5.94035156 15.43621094 -6.81820312 15.43492187 -7.72265625 15.43359375 C-8.47417969 15.29050781 -9.22570312 15.14742188 -10 15 C-10.66 14.01 -11.32 13.02 -12 12 C-8.32589215 10.82428549 -4.83070817 10.92633254 -1 11 C-0.73067479 6.34947128 -0.73067479 6.34947128 -2 2 C-1.34 2 -0.68 2 0 2 C0 1.34 0 0.68 0 0 Z " fill="#121126" transform="translate(120,341)"/>
<path d="M0 0 C1.32 0 2.64 0 4 0 C4 1.32 4 2.64 4 4 C5.32 4 6.64 4 8 4 C7.67 5.32 7.34 6.64 7 8 C6.01 8 5.02 8 4 8 C4 9.32 4 10.64 4 12 C2.68 12 1.36 12 0 12 C0 10.68 0 9.36 0 8 C-1.32 7.67 -2.64 7.34 -4 7 C-4 6.01 -4 5.02 -4 4 C-2.68 4 -1.36 4 0 4 C0 2.68 0 1.36 0 0 Z " fill="#969698" transform="translate(146,322)"/>
<path d="M0 0 C2.77245014 -0.13487595 5.53837088 -0.23400807 8.3125 -0.3125 C9.49102539 -0.3753418 9.49102539 -0.3753418 10.69335938 -0.43945312 C12.90057029 -0.48641506 14.8423971 -0.47331379 17 0 C19.10546875 2.39453125 19.10546875 2.39453125 20 5 C19.67 5.66 19.34 6.32 19 7 C19.99 7.66 20.98 8.32 22 9 C20.68 9 19.36 9 18 9 C18.4125 9.886875 18.825 10.77375 19.25 11.6875 C19.4975 12.780625 19.745 13.87375 20 15 C18.125 17.875 18.125 17.875 16 20 C15.34 19.34 14.68 18.68 14 18 C14.19702392 16.02976076 14.40418136 14.0589316 14.703125 12.1015625 C15.20277447 8.56457022 15.61985354 5.23970707 14 2 C10.72444392 1.52998967 10.72444392 1.52998967 6.9375 1.375 C5.00197266 1.26285156 5.00197266 1.26285156 3.02734375 1.1484375 C1.52880859 1.07496094 1.52880859 1.07496094 0 1 C0 0.67 0 0.34 0 0 Z " fill="#FBF7D8" transform="translate(124,317)"/>
<path d="M0 0 C3.625 -0.1875 3.625 -0.1875 7 0 C7 0.99 7 1.98 7 3 C7.66 3 8.32 3 9 3 C8.67 3.99 8.34 4.98 8 6 C6.06544546 6.38991022 4.12718172 6.76145349 2.1875 7.125 C1.10855469 7.33382813 0.02960938 7.54265625 -1.08203125 7.7578125 C-4 8 -4 8 -7 6 C-6.34 5.01 -5.68 4.02 -5 3 C-4.01 3 -3.02 3 -2 3 C-1.34 2.01 -0.68 1.02 0 0 Z " fill="#FBFAFD" transform="translate(111,333)"/>
<path d="M0 0 C2.0625 0.4375 2.0625 0.4375 4 1 C2.50829734 5.9723422 0.39542583 10.41845739 -2 15 C-2.66 15 -3.32 15 -4 15 C-4 10.38 -4 5.76 -4 1 C-3.01 1 -2.02 1 -1 1 C-0.67 0.67 -0.34 0.34 0 0 Z " fill="#E7E7F3" transform="translate(163,338)"/>
<path d="M0 0 C2.75 0 2.75 0 6 1 C8.14526048 3.95785914 10 7.29256965 10 11 C9.360625 10.855625 8.72125 10.71125 8.0625 10.5625 C4.06155212 9.82763202 0.04495104 9.41418889 -4 9 C-4 8.67 -4 8.34 -4 8 C-0.535 7.505 -0.535 7.505 3 7 C0.525 6.01 0.525 6.01 -2 5 C-1.34 3.35 -0.68 1.7 0 0 Z " fill="#56566E" transform="translate(211,346)"/>
<path d="M0 0 C4.62 0 9.24 0 14 0 C14 2.64 14 5.28 14 8 C12.68 7.34 11.36 6.68 10 6 C10 6.66 10 7.32 10 8 C9.01 8 8.02 8 7 8 C7 6.02 7 4.04 7 2 C6.01 2 5.02 2 4 2 C4 3.65 4 5.3 4 7 C3.67 7 3.34 7 3 7 C3 5.02 3 3.04 3 1 C2.01 0.67 1.02 0.34 0 0 Z " fill="#ABACAC" transform="translate(138,361)"/>
<path d="M0 0 C0.33 0 0.66 0 1 0 C1.33 2.31 1.66 4.62 2 7 C9.26 7 16.52 7 24 7 C24 5.35 24 3.7 24 2 C24.33 2 24.66 2 25 2 C25.33 4.31 25.66 6.62 26 9 C17.09 9 8.18 9 -1 9 C-0.67 6.03 -0.34 3.06 0 0 Z " fill="#C1AD77" transform="translate(264,255)"/>
<path d="M0 0 C0.66 0.33 1.32 0.66 2 1 C2.05410687 2.77049689 2.09284119 4.54146849 2.125 6.3125 C2.14820313 7.29863281 2.17140625 8.28476562 2.1953125 9.30078125 C2 12 2 12 0 15 C0 14.34 0 13.68 0 13 C-3.3 13 -6.6 13 -10 13 C-10.33 11.68 -10.66 10.36 -11 9 C-7.37 9 -3.74 9 0 9 C0 6.03 0 3.06 0 0 Z " fill="#F0D059" transform="translate(138,320)"/>
<path d="M0 0 C0.99 1.485 0.99 1.485 2 3 C2.66 3 3.32 3 4 3 C4 5.31 4 7.62 4 10 C4.99 9.67 5.98 9.34 7 9 C7.33 6.03 7.66 3.06 8 0 C8.33 0 8.66 0 9 0 C9.05389087 1.95803507 9.09274217 3.91648909 9.125 5.875 C9.14820313 6.96554687 9.17140625 8.05609375 9.1953125 9.1796875 C9 12 9 12 7 14 C4.5 14.25 4.5 14.25 2 14 C0 12 0 12 -0.1953125 9.1796875 C-0.17210937 8.08914063 -0.14890625 6.99859375 -0.125 5.875 C-0.10695312 4.77929688 -0.08890625 3.68359375 -0.0703125 2.5546875 C-0.04710937 1.71164062 -0.02390625 0.86859375 0 0 Z " fill="#DBD9E1" transform="translate(147,339)"/>
<path d="M0 0 C0 0.99 0 1.98 0 3 C1.32 2.67 2.64 2.34 4 2 C4 2.66 4 3.32 4 4 C2.02 4 0.04 4 -2 4 C-2 5.32 -2 6.64 -2 8 C-1.34 8 -0.68 8 0 8 C0.04254356 9.99954746 0.04080783 12.00041636 0 14 C-1 15 -1 15 -3.5 15.125 C-6 15 -6 15 -7 14 C-7.04080783 12.00041636 -7.04254356 9.99954746 -7 8 C-6.34 8 -5.68 8 -5 8 C-5 9.98 -5 11.96 -5 14 C-4.01 14 -3.02 14 -2 14 C-2.15597656 13.44570313 -2.31195313 12.89140625 -2.47265625 12.3203125 C-2.66730469 11.59585937 -2.86195313 10.87140625 -3.0625 10.125 C-3.25972656 9.40570313 -3.45695313 8.68640625 -3.66015625 7.9453125 C-4 6 -4 6 -3 4 C-3.99 3.67 -4.98 3.34 -6 3 C-2.25 0 -2.25 0 0 0 Z " fill="#BDBFC4" transform="translate(160,353)"/>
<path d="M0 0 C2.875 1.3125 2.875 1.3125 5 3 C5 3.99 5 4.98 5 6 C3.24929483 5.88529863 1.49942464 5.75780972 -0.25 5.625 C-1.22453125 5.55539062 -2.1990625 5.48578125 -3.203125 5.4140625 C-5.89633189 5.01534751 -7.66963279 4.36492937 -10 3 C-6.68588466 -0.05918339 -4.46341716 -0.54654088 0 0 Z " fill="#232132" transform="translate(136,339)"/>
<path d="M0 0 C7.92 0.33 15.84 0.66 24 1 C24 1.66 24 2.32 24 3 C20.37515001 3.08681476 16.75056557 3.14032721 13.125 3.1875 C11.57619141 3.22520508 11.57619141 3.22520508 9.99609375 3.26367188 C9.00996094 3.27333984 8.02382813 3.28300781 7.0078125 3.29296875 C5.64100342 3.31653442 5.64100342 3.31653442 4.24658203 3.34057617 C3.50520996 3.22818604 2.76383789 3.1157959 2 3 C1.34 2.01 0.68 1.02 0 0 Z " fill="#FEF9EF" transform="translate(265,180)"/>
<path d="M0 0 C1.67542976 0.28604898 3.34385343 0.61781233 5 1 C6.05095195 11.30933817 6.05095195 11.30933817 3.65234375 15.16796875 C0.52916887 18.05776353 -1.10721002 19.03246509 -5.4375 18.875 C-6.7059375 18.441875 -6.7059375 18.441875 -8 18 C-8 17.67 -8 17.34 -8 17 C-6.329375 16.87625 -6.329375 16.87625 -4.625 16.75 C-3.42875 16.5025 -2.2325 16.255 -1 16 C0.3762794 14.08235826 0.3762794 14.08235826 1 12 C1.66 11.67 2.32 11.34 3 11 C3 9.68 3 8.36 3 7 C1.68 6.67 0.36 6.34 -1 6 C-0.01 6 0.98 6 2 6 C1.2236068 2.9254644 1.2236068 2.9254644 -1 1 C-0.67 0.67 -0.34 0.34 0 0 Z " fill="#BEBDCB" transform="translate(139,339)"/>
<path d="M0 0 C6.93 0 13.86 0 21 0 C19.02 0.99 19.02 0.99 17 2 C16.01 1.67 15.02 1.34 14 1 C14 1.99 14 2.98 14 4 C11.36 4 8.72 4 6 4 C6 3.34 6 2.68 6 2 C3.03 1.505 3.03 1.505 0 1 C0 0.67 0 0.34 0 0 Z " fill="#D8B85E" transform="translate(220,264)"/>
<path d="M0 0 C1.67542976 0.28604898 3.34385343 0.61781233 5 1 C5.625 3.375 5.625 3.375 6 6 C5.34 6.66 4.68 7.32 4 8 C1.375 7.625 1.375 7.625 -1 7 C-1.04254356 5.00045254 -1.04080783 2.99958364 -1 1 C-0.67 0.67 -0.34 0.34 0 0 Z " fill="#BBBBBB" transform="translate(115,361)"/>
<path d="M0 0 C1.32 0 2.64 0 4 0 C4 5.61 4 11.22 4 17 C2.68 17 1.36 17 0 17 C-1 16 -1 16 -1.0625 13.4375 C-1.041875 12.633125 -1.02125 11.82875 -1 11 C-0.01 10.67 0.98 10.34 2 10 C2.33 7.03 2.66 4.06 3 1 C2.01 0.67 1.02 0.34 0 0 Z " fill="#39374F" transform="translate(235,339)"/>
<path d="M0 0 C0 3.96 0 7.92 0 12 C-0.33 12 -0.66 12 -1 12 C-1.144375 10.906875 -1.28875 9.81375 -1.4375 8.6875 C-1.88288104 5.06877013 -1.88288104 5.06877013 -3 2 C-3.99 2.495 -3.99 2.495 -5 3 C-6.87379605 3.07033769 -8.75001102 3.0843022 -10.625 3.0625 C-11.62789062 3.05347656 -12.63078125 3.04445312 -13.6640625 3.03515625 C-14.43492187 3.02355469 -15.20578125 3.01195312 -16 3 C-15.67 2.34 -15.34 1.68 -15 1 C-12.3828125 0.5859375 -12.3828125 0.5859375 -9.125 0.375 C-8.05507812 0.30023438 -6.98515625 0.22546875 -5.8828125 0.1484375 C-3.92384602 0.04756931 -1.96156164 0 0 0 Z " fill="#9A764C" transform="translate(210,212)"/>
<path d="M0 0 C2.14699969 3.44175522 2.09856795 5.7720292 1.625 9.75 C1.51414063 10.73484375 1.40328125 11.7196875 1.2890625 12.734375 C1.19367188 13.48203125 1.09828125 14.2296875 1 15 C0.01 15 -0.98 15 -2 15 C-2.05406122 13.06280622 -2.09282025 11.12518079 -2.125 9.1875 C-2.14820313 8.10855469 -2.17140625 7.02960938 -2.1953125 5.91796875 C-2 3 -2 3 0 0 Z " fill="#070528" transform="translate(225,341)"/>
<path d="M0 0 C0.33 0 0.66 0 1 0 C1 5.61 1 11.22 1 17 C5.62 17 10.24 17 15 17 C15 17.33 15 17.66 15 18 C10.05 18 5.1 18 0 18 C-0.33 15.69 -0.66 13.38 -1 11 C-1.66 11 -2.32 11 -3 11 C-2.53199289 6.94393835 -2.12046792 3.53411321 0 0 Z " fill="#F8ECA3" transform="translate(123,319)"/>
<path d="M0 0 C0.99 0 1.98 0 3 0 C3 4.62 3 9.24 3 14 C2.01 13.67 1.02 13.34 0 13 C0 8.71 0 4.42 0 0 Z " fill="#0A0626" transform="translate(144,339)"/>
<path d="M0 0 C1.11375 0.185625 2.2275 0.37125 3.375 0.5625 C6.82568861 1.31680657 6.82568861 1.31680657 9 0 C9 1.65 9 3.3 9 5 C5.2983569 5.94693195 3.60887535 6.30443767 0.125 4.5625 C-0.57625 4.046875 -1.2775 3.53125 -2 3 C-1.34 2.67 -0.68 2.34 0 2 C0 1.34 0 0.68 0 0 Z " fill="#1C1C31" transform="translate(147,351)"/>
<path d="M0 0 C0.99 0.33 1.98 0.66 3 1 C1.87548273 3.9719385 0.77706209 6.33440687 -1 9 C-1.99 8.67 -2.98 8.34 -4 8 C-4.33 6.02 -4.66 4.04 -5 2 C-3.68 2.33 -2.36 2.66 -1 3 C-0.67 2.01 -0.34 1.02 0 0 Z " fill="#141330" transform="translate(192,348)"/>
<path d="M0 0 C2.64 0 5.28 0 8 0 C7.67 1.65 7.34 3.3 7 5 C4.69 5 2.38 5 0 5 C0 3.35 0 1.7 0 0 Z " fill="#FEF3BC" transform="translate(110,323)"/>
<path d="M0 0 C0.99 0.33 1.98 0.66 3 1 C1.125 4.875 1.125 4.875 0 6 C-2.67058851 6.14115161 -5.32432238 6.04247107 -8 6 C-8 5.01 -8 4.02 -8 3 C-5.36 2.67 -2.72 2.34 0 2 C0 1.34 0 0.68 0 0 Z " fill="#0C0B22" transform="translate(138,350)"/>
<path d="M0 0 C0.33 1.32 0.66 2.64 1 4 C2.32 4 3.64 4 5 4 C4.67 5.32 4.34 6.64 4 8 C3.01 8 2.02 8 1 8 C1 9.32 1 10.64 1 12 C-0.32 12 -1.64 12 -3 12 C-3 10.68 -3 9.36 -3 8 C-3.99 7.67 -4.98 7.34 -6 7 C-4.68 7 -3.36 7 -2 7 C-2 8.32 -2 9.64 -2 11 C-1.34 11 -0.68 11 0 11 C-0.08378906 10.37351562 -0.16757813 9.74703125 -0.25390625 9.1015625 C-0.40666016 7.87566406 -0.40666016 7.87566406 -0.5625 6.625 C-0.66691406 5.81289063 -0.77132812 5.00078125 -0.87890625 4.1640625 C-1 2 -1 2 0 0 Z " fill="#ABACAC" transform="translate(149,322)"/>
<path d="M0 0 C0 3.3 0 6.6 0 10 C-1.98 8.35 -3.96 6.7 -6 5 C-3.74193548 0 -3.74193548 0 0 0 Z " fill="#F2F1FA" transform="translate(235,339)"/>
<path d="M0 0 C0.74056641 0.00451172 1.48113281 0.00902344 2.24414062 0.01367188 C4.05862899 0.02537825 5.87307534 0.04331102 7.6875 0.0625 C8.0175 0.7225 8.3475 1.3825 8.6875 2.0625 C3.4075 1.7325 -1.8725 1.4025 -7.3125 1.0625 C-7.3125 3.7025 -7.3125 6.3425 -7.3125 9.0625 C-8.51878008 6.73035852 -9.4779738 4.56607861 -10.3125 2.0625 C-11.3025 1.7325 -12.2925 1.4025 -13.3125 1.0625 C-8.8746439 -0.04915232 -4.54293614 -0.05277763 0 0 Z " fill="#FCF5B4" transform="translate(130.3125,317.9375)"/>
<path d="M0 0 C0.99 0 1.98 0 3 0 C3 0.66 3 1.32 3 2 C4.32 2.33 5.64 2.66 7 3 C6.195625 3.680625 5.39125 4.36125 4.5625 5.0625 C1.57711289 8.48477302 1.26218749 10.5428126 1 15 C0.67 15 0.34 15 0 15 C0 10.05 0 5.1 0 0 Z " fill="#9B7C51" transform="translate(185,212)"/>
<path d="M0 0 C0.66 0 1.32 0 2 0 C2.66 1.32 3.32 2.64 4 4 C5.32 4 6.64 4 8 4 C8.33 5.32 8.66 6.64 9 8 C5.37 7.34 1.74 6.68 -2 6 C-1.34 4.02 -0.68 2.04 0 0 Z " fill="#747288" transform="translate(167,346)"/>
<path d="M0 0 C1.32 0.99 2.64 1.98 4 3 C4.33 2.01 4.66 1.02 5 0 C5.66 0 6.32 0 7 0 C7 2.64 7 5.28 7 8 C6.34 8 5.68 8 5 8 C5 7.34 5 6.68 5 6 C4.34 6 3.68 6 3 6 C3 5.34 3 4.68 3 4 C2.34 4 1.68 4 1 4 C0.67 4.99 0.34 5.98 0 7 C0 4.69 0 2.38 0 0 Z " fill="#A0A2A2" transform="translate(188,361)"/>
<path d="M0 0 C0.33 0 0.66 0 1 0 C1 4.95 1 9.9 1 15 C0.01 15 -0.98 15 -2 15 C-2.05429959 13.25034642 -2.09292823 11.50020213 -2.125 9.75 C-2.15980469 8.28820312 -2.15980469 8.28820312 -2.1953125 6.796875 C-1.99862781 3.9803502 -1.44568916 2.39050964 0 0 Z " fill="#04041C" transform="translate(199,341)"/>
<path d="M0 0 C4.62 0 9.24 0 14 0 C12.68 1.32 11.36 2.64 10 4 C9.31883062 6.10938065 9.31883062 6.10938065 9.25 8.25 C9.1675 9.4875 9.085 10.725 9 12 C8.67 12 8.34 12 8 12 C8 8.7 8 5.4 8 2 C5.36 1.67 2.72 1.34 0 1 C0 0.67 0 0.34 0 0 Z " fill="#D7B457" transform="translate(170,184)"/>
<path d="M0 0 C2 0 2 0 4.125 2 C4.74375 2.66 5.3625 3.32 6 4 C6.33 2.68 6.66 1.36 7 0 C7 2.64 7 5.28 7 8 C5.68 7.01 4.36 6.02 3 5 C2.67 5.66 2.34 6.32 2 7 C1.34 7 0.68 7 0 7 C0 4.69 0 2.38 0 0 Z " fill="#9C9D9C" transform="translate(122,361)"/>
<path d="M0 0 C0.66 0.33 1.32 0.66 2 1 C2 5 2 9 2 13 C1.34 13 0.68 13 0 13 C0 12.34 0 11.68 0 11 C-0.66 11 -1.32 11 -2 11 C-1.85892253 9.54119891 -1.71197585 8.08296449 -1.5625 6.625 C-1.48128906 5.81289063 -1.40007812 5.00078125 -1.31640625 4.1640625 C-1 2 -1 2 0 0 Z " fill="#D5D6E5" transform="translate(124,343)"/>
<path d="M0 0 C0.33 0 0.66 0 1 0 C1.05389087 1.95803507 1.09274217 3.91648909 1.125 5.875 C1.14820313 6.96554687 1.17140625 8.05609375 1.1953125 9.1796875 C1 12 1 12 -1 14 C-3.625 14.125 -3.625 14.125 -6 14 C-5.34 13.67 -4.68 13.34 -4 13 C-3.34786708 10.97536745 -3.34786708 10.97536745 -3 9 C-2.34 9 -1.68 9 -1 9 C-0.67 6.03 -0.34 3.06 0 0 Z " fill="#CCCDD9" transform="translate(155,339)"/>
<path d="M0 0 C2.97 0 5.94 0 9 0 C9 0.66 9 1.32 9 2 C7.02 2.33 5.04 2.66 3 3 C2.67 4.65 2.34 6.3 2 8 C1.34 8 0.68 8 0 8 C0 5.36 0 2.72 0 0 Z " fill="#E9C02D" transform="translate(107,320)"/>
<path d="M0 0 C0.33 0 0.66 0 1 0 C1 3.3 1 6.6 1 10 C0.01 9.34 -0.98 8.68 -2 8 C-2.99 8.66 -3.98 9.32 -5 10 C-3.85017555 6.10828647 -2.70784225 3.06103907 0 0 Z " fill="#E4E4F3" transform="translate(196,348)"/>
<path d="M0 0 C1.98 0 3.96 0 6 0 C6 1.98 6 3.96 6 6 C3.69 5.67 1.38 5.34 -1 5 C-0.67 3.35 -0.34 1.7 0 0 Z " fill="#F9F9FD" transform="translate(137,345)"/>
<path d="M0 0 C0.99 0 1.98 0 3 0 C3 3.96 3 7.92 3 12 C2.67 11.01 2.34 10.02 2 9 C1.34 9 0.68 9 0 9 C0 6.03 0 3.06 0 0 Z " fill="#0D0829" transform="translate(235,340)"/>
<path d="M0 0 C2.97 0 5.94 0 9 0 C9 0.66 9 1.32 9 2 C9.66 2.33 10.32 2.66 11 3 C8.03 2.505 8.03 2.505 5 2 C5 2.66 5 3.32 5 4 C3.35 4 1.7 4 0 4 C0 2.68 0 1.36 0 0 Z " fill="#F7FAF0" transform="translate(171,336)"/>
<path d="M0 0 C0.33 2.31 0.66 4.62 1 7 C-3.875 5.25 -3.875 5.25 -5 3 C-7.01669827 1.86649466 -7.01669827 1.86649466 -9 1 C-5.94152152 0.45627049 -3.11227195 0 0 0 Z " fill="#E2E2E2" transform="translate(141,362)"/>
<path d="M0 0 C0.66 0.66 1.32 1.32 2 2 C4.43252661 2.46162427 4.43252661 2.46162427 7.125 2.625 C8.03507813 2.69976562 8.94515625 2.77453125 9.8828125 2.8515625 C10.58148438 2.90054687 11.28015625 2.94953125 12 3 C12 3.66 12 4.32 12 5 C8.04 5 4.08 5 0 5 C0 3.35 0 1.7 0 0 Z " fill="#EDC53A" transform="translate(126,330)"/>
<path d="M0 0 C-0.33 1.65 -0.66 3.3 -1 5 C-3.97 4.505 -3.97 4.505 -7 4 C-7 2.68 -7 1.36 -7 0 C-2.25 -1.125 -2.25 -1.125 0 0 Z " fill="#E9E9E9" transform="translate(114,363)"/>
<path d="M0 0 C1.65 0 3.3 0 5 0 C5.66 1.98 6.32 3.96 7 6 C5.68 6 4.36 6 3 6 C2.67 4.68 2.34 3.36 2 2 C1.34 2 0.68 2 0 2 C0 1.34 0 0.68 0 0 Z " fill="#131130" transform="translate(167,344)"/>
<path d="M0 0 C0.23460937 0.64453125 0.46921875 1.2890625 0.7109375 1.953125 C1.81161073 4.2077908 1.81161073 4.2077908 4.1640625 4.609375 C4.97617188 4.65578125 5.78828125 4.7021875 6.625 4.75 C7.85089844 4.83507812 7.85089844 4.83507812 9.1015625 4.921875 C9.72804687 4.94765625 10.35453125 4.9734375 11 5 C11 5.33 11 5.66 11 6 C4.565 6.495 4.565 6.495 -2 7 C-1 2 -1 2 0 0 Z " fill="#35344C" transform="translate(162,349)"/>
<path d="M0 0 C5.39449293 -0.27429625 8.51925805 -0.36055646 13 3 C11.68 3.33 10.36 3.66 9 4 C9 3.34 9 2.68 9 2 C6.03 2 3.06 2 0 2 C0 1.34 0 0.68 0 0 Z " fill="#060420" transform="translate(164,352)"/>
<path d="M0 0 C0.66 0 1.32 0 2 0 C2 2.31 2 4.62 2 7 C1.67 6.34 1.34 5.68 1 5 C-0.65 5.33 -2.3 5.66 -4 6 C-4 4.68 -4 3.36 -4 2 C-2.68 1.67 -1.36 1.34 0 1 C0 0.67 0 0.34 0 0 Z " fill="#EDEFEF" transform="translate(167,361)"/>
<path d="M0 0 C1.32 0 2.64 0 4 0 C4 0.66 4 1.32 4 2 C5.32 2.33 6.64 2.66 8 3 C2.72 3 -2.56 3 -8 3 C-8 2.67 -8 2.34 -8 2 C-6.865625 1.855625 -5.73125 1.71125 -4.5625 1.5625 C-1.19222799 1.38828522 -1.19222799 1.38828522 0 0 Z " fill="#FEFCE3" transform="translate(176,181)"/>
<path d="M0 0 C1.98 0 3.96 0 6 0 C6 0.66 6 1.32 6 2 C5.34 2 4.68 2 4 2 C4 3.98 4 5.96 4 8 C3.34 8 2.68 8 2 8 C2 6.02 2 4.04 2 2 C1.34 2 0.68 2 0 2 C0 1.34 0 0.68 0 0 Z " fill="#A6A8A7" transform="translate(169,361)"/>
<path d="M0 0 C0 2.64 0 5.28 0 8 C-2.5 6.1875 -2.5 6.1875 -5 4 C-5 3.01 -5 2.02 -5 1 C-2 0 -2 0 0 0 Z " fill="#B9BBBC" transform="translate(152,361)"/>
<path d="M0 0 C1.98 0.99 1.98 0.99 4 2 C3.67 2.99 3.34 3.98 3 5 C4.65 5.33 6.3 5.66 8 6 C8 6.33 8 6.66 8 7 C6.02 7.33 4.04 7.66 2 8 C0 1.125 0 1.125 0 0 Z " fill="#E0E1E0" transform="translate(128,360)"/>
<path d="M0 0 C2.64 0 5.28 0 8 0 C8 0.99 8 1.98 8 3 C5.36 3 2.72 3 0 3 C0 2.01 0 1.02 0 0 Z " fill="#FFF4A7" transform="translate(128,330)"/>
<path d="M0 0 C0.33 0 0.66 0 1 0 C1.02698189 1.62490954 1.04638757 3.24994633 1.0625 4.875 C1.07410156 5.77992188 1.08570312 6.68484375 1.09765625 7.6171875 C1 10 1 10 0 12 C-0.66 12 -1.32 12 -2 12 C-2 9.69 -2 7.38 -2 5 C-1.34 5 -0.68 5 0 5 C0 3.35 0 1.7 0 0 Z " fill="#F2C73C" transform="translate(109,323)"/>
<path d="M0 0 C2.64 0 5.28 0 8 0 C8 0.99 8 1.98 8 3 C5.36 3 2.72 3 0 3 C0 2.01 0 1.02 0 0 Z " fill="#FFFAB4" transform="translate(128,323)"/>
<path d="M0 0 C1.90608098 3.21182149 2.22266247 5.53882603 2.125 9.25 C2.10695312 10.14203125 2.08890625 11.0340625 2.0703125 11.953125 C2.04710937 12.62859375 2.02390625 13.3040625 2 14 C-0.35348271 11.64651729 -0.36468749 10.78533309 -0.6875 7.5625 C-0.77386719 6.78003906 -0.86023438 5.99757812 -0.94921875 5.19140625 C-1 3 -1 3 0 0 Z " fill="#BD9747" transform="translate(208,220)"/>
<path d="M0 0 C0 0.66 0 1.32 0 2 C-0.99 2.33 -1.98 2.66 -3 3 C-3.33 4.65 -3.66 6.3 -4 8 C-4.33 8 -4.66 8 -5 8 C-5.33 6.35 -5.66 4.7 -6 3 C-6.99 3 -7.98 3 -9 3 C-9 2.34 -9 1.68 -9 1 C-5.92677456 0.08941469 -3.19902639 -0.08886184 0 0 Z " fill="#23163C" transform="translate(150,185)"/>
<path d="M0 0 C0 0.99 0 1.98 0 3 C-3.3 3.33 -6.6 3.66 -10 4 C-10 3.01 -10 2.02 -10 1 C-2.25 0 -2.25 0 0 0 Z " fill="#FDECAF" transform="translate(120,330)"/>
<path d="M0 0 C1.32 0 2.64 0 4 0 C3.625 2.4375 3.625 2.4375 3 5 C2.01 5.495 2.01 5.495 1 6 C0.34 5.67 -0.32 5.34 -1 5 C-0.67 3.35 -0.34 1.7 0 0 Z " fill="#FBFBFD" transform="translate(112,357)"/>
<path d="M0 0 C1.32 0.33 2.64 0.66 4 1 C3.67 3.64 3.34 6.28 3 9 C2.67 9 2.34 9 2 9 C2 7.35 2 5.7 2 4 C1.34 4 0.68 4 0 4 C0 2.68 0 1.36 0 0 Z " fill="#F5F7F8" transform="translate(158,357)"/>
<path d="M0 0 C2.34058637 2.12780579 3.70700306 4.11562221 5 7 C4.01 7.33 3.02 7.66 2 8 C1.34 7.67 0.68 7.34 0 7 C0 4.69 0 2.38 0 0 Z " fill="#E7E5F0" transform="translate(183,348)"/>
<path d="M0 0 C1.32 0 2.64 0 4 0 C4.66 1.32 5.32 2.64 6 4 C3.125 4.625 3.125 4.625 0 5 C-0.66 4.34 -1.32 3.68 -2 3 C-1.34 2.01 -0.68 1.02 0 0 Z " fill="#F0F1E0" transform="translate(106,336)"/>
<path d="M0 0 C3.3 0 6.6 0 10 0 C8.02 0.99 8.02 0.99 6 2 C5.01 1.67 4.02 1.34 3 1 C3 1.99 3 2.98 3 4 C1.68 4 0.36 4 -1 4 C-0.67 2.68 -0.34 1.36 0 0 Z " fill="#C6B271" transform="translate(231,264)"/>
<path d="M0 0 C0 0.66 0 1.32 0 2 C0.66 2.33 1.32 2.66 2 3 C1.67 3.99 1.34 4.98 1 6 C-2 5 -2 5 -3.1875 2.9375 C-3.5896875 1.9784375 -3.5896875 1.9784375 -4 1 C-2 0 -2 0 0 0 Z " fill="#23243D" transform="translate(129,350)"/>
<path d="M0 0 C0.33 0 0.66 0 1 0 C1 2.64 1 5.28 1 8 C0.01 8 -0.98 8 -2 8 C-1.125 2.25 -1.125 2.25 0 0 Z " fill="#010112" transform="translate(225,348)"/>
<path d="M0 0 C1.32 0.66 2.64 1.32 4 2 C3.67 3.65 3.34 5.3 3 7 C1.68 6.67 0.36 6.34 -1 6 C-0.01 6 0.98 6 2 6 C1.2236068 2.9254644 1.2236068 2.9254644 -1 1 C-0.67 0.67 -0.34 0.34 0 0 Z " fill="#CDCAD9" transform="translate(139,339)"/>
<path d="M0 0 C1.2065625 0.0309375 1.2065625 0.0309375 2.4375 0.0625 C1.7775 1.7125 1.1175 3.3625 0.4375 5.0625 C-0.2225 5.0625 -0.8825 5.0625 -1.5625 5.0625 C-2.2225 3.7425 -2.8825 2.4225 -3.5625 1.0625 C-2.5625 0.0625 -2.5625 0.0625 0 0 Z " fill="#E3E5F1" transform="translate(190.5625,345.9375)"/>
<path d="M0 0 C1.98 0 3.96 0 6 0 C4.68 1.32 3.36 2.64 2 4 C1.01 3.67 0.02 3.34 -1 3 C-0.67 2.01 -0.34 1.02 0 0 Z " fill="#FCFBEB" transform="translate(111,333)"/>
</svg>
